<svg width="37" height="43" viewBox="0 0 37 43" fill="none" xmlns="http://www.w3.org/2000/svg">
<g clip-path="url(#clip0_3309_20324)">
<path d="M3.66763 34.7776H0.8125V31.4316H3.66763V34.7776ZM35.5072 34.7776H32.652V31.4316H35.5072V34.7776ZM18.1335 34.7215H12.4241V28.0303H18.1335V34.7215ZM27.8455 32.4905H24.0393V28.0303H27.8455V32.4905ZM12.3295 27.9163H6.6192V21.2251H12.3295V27.9163ZM23.942 27.9163H18.2326V21.2251H23.942V27.9163ZM6.52277 21.1129H0.8125V14.4209H6.52277V21.1129ZM29.7487 21.1129H24.0393V14.4209H29.7487V21.1129ZM12.3295 14.306H6.6192V7.61483H12.3295V14.306ZM23.942 14.306H18.2326V7.61483H23.942V14.306ZM27.8455 7.54032H24.0393V3.0801H27.8455V7.54032ZM18.1335 7.50175H12.4241V0.810547H18.1335V7.50175ZM3.66763 4.15658H0.8125V0.810547H3.66763V4.15658ZM35.5072 4.15658H32.652V0.810547H35.5072V4.15658Z" fill="#1F1F1F" stroke="#1F1F1F" stroke-linejoin="bevel"/>
<path d="M3.666 31.4319H0.810868V34.7779H3.666V31.4319ZM35.5055 31.4319H32.6504V34.7779H35.5055V31.4319ZM27.8439 28.0306H24.0376V32.4908H27.8439V28.0306ZM3.666 0.810869H0.810868V4.15691H3.666V0.810869ZM35.5055 0.810869H32.6504V4.15691H35.5055V0.810869ZM18.1319 34.7218V28.0306H12.4225V34.7218H18.1319ZM4.47687 34.7779L3.666 35.5888H0.810868L0 34.7779V31.4319L0.810868 30.621H3.666L4.47687 31.4319V34.7779ZM36.3164 34.7779L35.5055 35.5888H32.6504L31.8395 34.7779V31.4319L32.6504 30.621H35.5055L36.3164 31.4319V34.7779ZM24.0376 14.4212V21.1133H29.747V14.4212H24.0376ZM12.3278 27.9167V21.2255H6.61756V27.9167H12.3278ZM13.1387 27.2198H17.4201V21.2255L18.231 20.4146H23.2268V15.1172H18.231L17.4201 14.3063V8.31294H13.1387V14.3063L12.3278 15.1172H7.332V20.4146H12.3278L13.1387 21.2255V27.2198ZM18.231 27.9167H23.9403V21.2255H18.231V27.9167ZM0.810868 21.1133H6.52114V14.4212H0.810868V21.1133ZM24.0376 3.08042V7.54064H27.8439V3.08042H24.0376ZM23.9403 14.3063V7.61515H18.231V14.3063H23.9403ZM6.61756 14.3063H12.3278V7.61515H6.61756V14.3063ZM12.4225 0.810869V7.50207H18.1319V0.810869H12.4225ZM4.47687 4.15691L3.666 4.96777H0.810868L0 4.15691V0.810869L0.810868 0H3.666L4.47687 0.810869V4.15691ZM18.9428 6.80428H23.2268V3.08042L24.0376 2.26956H27.8439L28.6548 3.08042V7.54064L27.8439 8.35151H24.7512V13.6103H29.747L30.5579 14.4212V21.1133L29.747 21.9241H24.7512V27.2198H27.8439L28.6548 28.0306V32.4908L27.8439 33.3017H24.0376L23.2268 32.4908V28.7275H18.9428V34.7218L18.1319 35.5327H12.4225L11.6116 34.7218V28.7275H6.61756L5.80669 27.9167V21.9241H0.810868L0 21.1133V14.4212L0.810868 13.6103H5.80669V7.61515L6.61756 6.80428H11.6116V0.810869L12.4225 0H18.1319L18.9428 0.810869V6.80428ZM36.3164 4.15691L35.5055 4.96777H32.6504L31.8395 4.15691V0.810869L32.6504 0H35.5055L36.3164 0.810869V4.15691Z" fill="#1F1F1F"/>
</g>
<defs>
<clipPath id="clip0_3309_20324">
<rect width="36.6798" height="43" fill="white"/>
</clipPath>
</defs>
</svg>
